<svg width="160" height="42" viewBox="0 0 160 42" fill="none" xmlns="http://www.w3.org/2000/svg">
<path d="M48.1992 20.9293H44.7383V14.3191H48.1992C49.8731 14.3191 51.2064 15.7944 51.2064 17.6099C51.2064 19.4539 49.8731 20.9293 48.1992 20.9293ZM50.6957 23.3406L50.7524 23.3123C51.0646 23.1701 51.3767 22.9717 51.632 22.7732C53.1923 21.6099 54.1283 19.7093 54.1283 17.6383C54.1283 14.234 51.6037 11.4538 48.5115 11.4538H41.8162V30.4613H44.7099V23.7947H44.7666C44.7666 23.7947 46.3269 23.7947 47.4901 23.7947H47.5184L47.5468 23.823L51.9439 30.4613H55.4049L50.6957 23.3406ZM63.6605 27.7661H61.9016V14.234H63.6605C66.7811 14.234 69.1357 17.2696 69.1357 21.0143C69.1357 24.7307 66.7811 27.7661 63.6605 27.7661ZM63.7456 11.4822H59.0363V30.4897H63.7456C68.3413 30.4897 71.9726 26.2343 71.9726 20.986C71.9726 15.766 68.313 11.4822 63.7456 11.4822ZM109.647 20.9293H106.186V14.3191H109.647C111.321 14.3191 112.654 15.7944 112.654 17.6099C112.654 19.4539 111.321 20.9293 109.647 20.9293ZM112.143 23.3406L112.2 23.3123C112.512 23.1701 112.824 22.9717 113.08 22.7732C114.64 21.6099 115.576 19.7093 115.576 17.6383C115.576 14.234 113.051 11.4538 109.959 11.4538H103.264V30.4613H106.158V23.7947H106.214C106.214 23.7947 107.774 23.7947 108.938 23.7947H108.966L108.994 23.823L113.392 30.4613H116.881L112.143 23.3406ZM99.4623 11.4822H87.3203V14.1489H91.8879V30.4897H94.8949V14.1489H99.4623V11.4822ZM14.2697 31V11.4822H11.3761V23.5958L0 11.0851V30.4897H2.89364V18.5746L3.00714 18.688L14.2697 31ZM128.739 28.1064C124.824 28.1064 121.647 24.9292 121.647 21.0143C121.647 17.0993 124.824 13.922 128.739 13.922C132.654 13.922 135.832 17.0993 135.832 21.0143C135.832 24.9009 132.654 28.1064 128.739 28.1064ZM128.739 11C123.236 11 118.754 15.4824 118.754 20.986C118.754 26.4894 123.236 30.9717 128.739 30.9717C134.243 30.9717 138.725 26.4894 138.725 20.986C138.725 15.4824 134.243 11 128.739 11ZM28.0571 28.1064C24.1421 28.1064 20.9649 24.9292 20.9649 21.0143C20.9649 17.0993 24.1421 13.922 28.0571 13.922C31.9721 13.922 35.1495 17.0993 35.1495 21.0143C35.1779 24.9009 31.9721 28.1064 28.0571 28.1064ZM28.0571 11C22.5535 11 18.0711 15.4824 18.0711 20.986C18.0711 26.4894 22.5535 30.9717 28.0571 30.9717C33.5607 30.9717 38.0431 26.4894 38.0431 20.986C38.0715 15.4824 33.5891 11 28.0571 11ZM84.8524 25.4683C84.7955 24.4752 84.3417 22.4896 81.7601 20.4185L79.4905 18.4326C78.5258 17.6666 78.072 16.844 78.0436 15.8794C78.0436 14.773 78.7812 14.0071 79.8878 13.9503C79.9162 13.9503 81.306 13.78 82.1571 14.9717L82.1854 15.0284L84.4834 13.4681L84.4551 13.4114C84.058 12.7871 82.2707 11.0851 79.8593 11.1985C78.4975 11.2552 77.2778 11.7942 76.4266 12.6454C75.5472 13.5532 75.1215 14.7446 75.2068 16.1347C75.292 17.7519 76.228 19.2554 78.1856 20.844L80.3131 22.7165C81.5048 23.6809 82.0155 24.5036 82.0722 25.4683C82.1289 26.1776 81.8736 26.8584 81.4196 27.3688C81.0224 27.8229 80.5684 28.0214 79.9445 28.0781H79.8026C78.0153 28.0781 77.2778 26.8014 76.8521 26.0355L76.7385 25.837L74.2706 27.0286C74.4974 27.6527 75.8309 30.8015 79.7459 30.8015H79.8026C81.2209 30.7165 82.526 30.1491 83.4622 29.1846C84.4267 28.2202 84.9374 26.8868 84.8524 25.4683ZM150.981 22.6598L159.492 11.1134V30.518H156.598V20.078L150.952 27.596L145.364 20.078V30.518H142.47V11.0851L150.981 22.6598Z" fill="#231F20"/>
</svg>
