<svg width="32" height="18" viewBox="0 0 32 18" fill="none" xmlns="http://www.w3.org/2000/svg">
<path d="M8.7831 15.6357C9.60143 14.8174 10.6828 14.3205 13.9853 13.1515C16.2942 12.3332 18.2816 11.6902 18.4277 11.6902C18.8661 11.6902 18.1062 13.4437 17.5217 13.736C17.2294 13.9114 15.5635 14.379 13.8392 14.7881C12.1149 15.1973 10.1275 15.7818 9.39685 16.1033C7.67252 16.8632 7.61406 16.8047 8.7831 15.6357Z" fill="white"/>
<path d="M9.98127 12.9469C10.4781 12.2455 11.1503 11.5149 11.501 11.2811C12.6701 10.5504 20.7657 7.18942 20.9118 7.36477C20.9995 7.45245 20.9995 7.86161 20.8826 8.27078C20.5319 9.70285 19.4505 10.4043 16.2941 11.2811C14.6574 11.7487 12.3778 12.5962 11.2088 13.1807L9.10449 14.2329L9.98127 12.9469Z" fill="white"/>
<path d="M10.5366 11.2811C10.5366 10.9304 11.4719 9.23532 12.1733 8.27086C12.6117 7.71557 14.1899 6.63421 16.2941 5.46517C19.2752 3.82851 23.0454 1.84114 23.776 1.51965C24.1852 1.31507 23.9806 2.74715 23.3961 3.97464C22.7239 5.31904 22.227 5.64052 17.6678 7.39408C14.2191 8.70925 12.8455 9.4399 11.5595 10.5505C11.0042 11.0473 10.5366 11.3688 10.5366 11.2811Z" fill="white"/>
</svg>
